<mxfile host="app.diagrams.net" modified="2024-04-18T01:15:17.463Z" agent="Mozilla/5.0 (Windows NT 10.0; Win64; x64) AppleWebKit/537.36 (KHTML, like Gecko) Chrome/123.0.0.0 Safari/537.36" version="24.2.5" etag="m0uM0Vuf4mOcJud9zUcg" type="github">
  <diagram name="Page-1" id="ecIjU91-d8oC0F4BqUse">
    <mxGraphModel>
      <root>
        <mxCell id="0" />
        <mxCell id="1" parent="0" />
      </root>
    </mxGraphModel>
  </diagram>
</mxfile>
